<mxfile host="www.draw.io" modified="2019-10-31T14:33:06.381Z" agent="Mozilla/5.0 (Windows NT 10.0; Win64; x64; rv:69.0) Gecko/20100101 Firefox/69.0" etag="Fjhptl2iJx8VotmHM7dT" version="12.1.9" type="github" pages="1">
  <diagram id="9pdyD2Oyel4eymqsF20k" name="Page-1">
    <mxGraphModel dx="1422" dy="769" grid="1" gridSize="10" guides="1" tooltips="1" connect="1" arrows="1" fold="1" page="1" pageScale="1" pageWidth="827" pageHeight="1169" math="0" shadow="0">
      <root>
        <mxCell id="0"/>
        <mxCell id="1" parent="0"/>
        <mxCell id="65k3x3zuta5IXdkDI2n7-28" value="" style="rounded=0;whiteSpace=wrap;html=1;fontSize=24;align=center;" parent="1" vertex="1">
          <mxGeometry x="160" y="640" width="520" height="410" as="geometry"/>
        </mxCell>
        <mxCell id="65k3x3zuta5IXdkDI2n7-17" value="" style="rounded=0;whiteSpace=wrap;html=1;fontSize=34;" parent="1" vertex="1">
          <mxGeometry y="30" width="790" height="530" as="geometry"/>
        </mxCell>
        <mxCell id="65k3x3zuta5IXdkDI2n7-3" value="&lt;div&gt;Nome les membres du FRBoG&lt;/div&gt;&lt;div&gt;nomination validée par le sénat&lt;/div&gt;" style="edgeStyle=orthogonalEdgeStyle;rounded=0;orthogonalLoop=1;jettySize=auto;html=1;exitX=0.5;exitY=1;exitDx=0;exitDy=0;entryX=0.5;entryY=0;entryDx=0;entryDy=0;" parent="1" source="65k3x3zuta5IXdkDI2n7-1" target="65k3x3zuta5IXdkDI2n7-2" edge="1">
          <mxGeometry relative="1" as="geometry"/>
        </mxCell>
        <mxCell id="65k3x3zuta5IXdkDI2n7-1" value="&lt;div&gt;PotUS&lt;/div&gt;&lt;div&gt;(President of the United States)&lt;br&gt;&lt;/div&gt;" style="rounded=0;whiteSpace=wrap;html=1;fillColor=#dae8fc;strokeColor=#6c8ebf;" parent="1" vertex="1">
          <mxGeometry x="460" y="40" width="200" height="60" as="geometry"/>
        </mxCell>
        <mxCell id="65k3x3zuta5IXdkDI2n7-12" value="Nomme 7 membres" style="edgeStyle=orthogonalEdgeStyle;rounded=0;orthogonalLoop=1;jettySize=auto;html=1;exitX=0.5;exitY=1;exitDx=0;exitDy=0;entryX=0.5;entryY=0;entryDx=0;entryDy=0;startArrow=none;startFill=0;" parent="1" source="65k3x3zuta5IXdkDI2n7-2" target="65k3x3zuta5IXdkDI2n7-5" edge="1">
          <mxGeometry relative="1" as="geometry"/>
        </mxCell>
        <mxCell id="65k3x3zuta5IXdkDI2n7-2" value="&lt;div&gt;FRBoG&lt;br&gt;&lt;/div&gt;&lt;div&gt;(Federal Reserve Board of Governors)&lt;/div&gt;&lt;div&gt;7 membres&lt;/div&gt;&lt;div&gt;&lt;br&gt;&lt;/div&gt;&lt;div&gt;Supervise les banques américaines (juridiction internationale) et étrangères (sous juridiction locale) et assure la sécurité,&amp;nbsp; la&amp;nbsp; solvabilité&amp;nbsp; et&amp;nbsp; la&amp;nbsp; légalité&amp;nbsp; des&amp;nbsp; activités bancaires.&lt;br&gt;&lt;/div&gt;" style="rounded=0;whiteSpace=wrap;html=1;fillColor=#d5e8d4;strokeColor=#82b366;" parent="1" vertex="1">
          <mxGeometry x="340" y="190" width="440" height="150" as="geometry"/>
        </mxCell>
        <mxCell id="65k3x3zuta5IXdkDI2n7-4" value="&lt;div&gt;FRBs&lt;/div&gt;&lt;div&gt;(Federal Reserve Banks)&lt;br&gt;&lt;/div&gt;12 membres" style="rounded=0;whiteSpace=wrap;html=1;fillColor=#b0e3e6;strokeColor=#0e8088;" parent="1" vertex="1">
          <mxGeometry x="10" y="190" width="150" height="360" as="geometry"/>
        </mxCell>
        <mxCell id="65k3x3zuta5IXdkDI2n7-14" value="&lt;div&gt;Nomme 4 de ses membres&lt;/div&gt;+ NYFeD obligatoirement" style="edgeStyle=orthogonalEdgeStyle;rounded=0;orthogonalLoop=1;jettySize=auto;html=1;exitX=0;exitY=0.5;exitDx=0;exitDy=0;entryX=1;entryY=0.827;entryDx=0;entryDy=0;entryPerimeter=0;startArrow=classic;startFill=1;endArrow=none;endFill=0;" parent="1" source="65k3x3zuta5IXdkDI2n7-5" target="65k3x3zuta5IXdkDI2n7-4" edge="1">
          <mxGeometry relative="1" as="geometry">
            <Array as="points">
              <mxPoint x="160" y="475"/>
            </Array>
          </mxGeometry>
        </mxCell>
        <mxCell id="65k3x3zuta5IXdkDI2n7-5" value="&lt;div&gt;FOMC&lt;/div&gt;&lt;div&gt;(Federal Open Market Comittee)&lt;/div&gt;&lt;div&gt;12 membres&lt;/div&gt;&lt;div&gt;&lt;br&gt;&lt;/div&gt;&lt;div&gt;Met en place la politique monétaire des USA en utilisant un certain nombre d&#39;instruments comme le taux de rémunération des dépôts, le taux de refinancement, le taux d&#39;escompte et le taux des fonds fédéraux.&lt;br&gt;&lt;/div&gt;" style="rounded=0;whiteSpace=wrap;html=1;fillColor=#f8cecc;strokeColor=#b85450;" parent="1" vertex="1">
          <mxGeometry x="340" y="400" width="440" height="150" as="geometry"/>
        </mxCell>
        <mxCell id="65k3x3zuta5IXdkDI2n7-16" value="&lt;div style=&quot;font-size: 34px;&quot;&gt;Federal Reserve System&lt;/div&gt;&lt;div style=&quot;font-size: 34px;&quot;&gt;(FED)&lt;br style=&quot;font-size: 34px;&quot;&gt;&lt;/div&gt;" style="rounded=0;whiteSpace=wrap;html=1;strokeColor=none;fontSize=34;" parent="1" vertex="1">
          <mxGeometry x="10" y="40" width="410" height="110" as="geometry"/>
        </mxCell>
        <mxCell id="65k3x3zuta5IXdkDI2n7-20" value="&lt;div&gt;FRB - BoG&lt;/div&gt;&lt;div&gt;(Board of Governors)&lt;/div&gt;&lt;div&gt;9 membres&lt;/div&gt;" style="rounded=0;whiteSpace=wrap;html=1;fontSize=12;fillColor=#e1d5e7;strokeColor=#9673a6;" parent="1" vertex="1">
          <mxGeometry x="170" y="720" width="500" height="70" as="geometry"/>
        </mxCell>
        <mxCell id="65k3x3zuta5IXdkDI2n7-21" value="&lt;div&gt;class A directors&lt;/div&gt;&lt;div&gt;&lt;br&gt;&lt;/div&gt;&lt;div&gt;nommés par les banques commerciales,&lt;br&gt;&lt;/div&gt;&lt;div&gt;les membres sont banquiers&lt;br&gt;&lt;/div&gt;" style="rounded=0;whiteSpace=wrap;html=1;fontSize=12;fillColor=#fff2cc;strokeColor=#d6b656;" parent="1" vertex="1">
          <mxGeometry x="170" y="800" width="160" height="240" as="geometry"/>
        </mxCell>
        <mxCell id="65k3x3zuta5IXdkDI2n7-24" value="&lt;div&gt;class B directors&lt;/div&gt;&lt;div&gt;&lt;br&gt;&lt;/div&gt;&lt;div&gt;nommés par les banques commerciales&lt;br&gt;&lt;/div&gt;&lt;div&gt;les membres ne sont pas banquiers&lt;br&gt;&lt;/div&gt;" style="rounded=0;whiteSpace=wrap;html=1;fontSize=12;fillColor=#ffe6cc;strokeColor=#d79b00;" parent="1" vertex="1">
          <mxGeometry x="340" y="800" width="160" height="240" as="geometry"/>
        </mxCell>
        <mxCell id="65k3x3zuta5IXdkDI2n7-25" value="&lt;div&gt;class C directors&lt;/div&gt;&lt;div&gt;&lt;br&gt;&lt;/div&gt;nommés par le FRBoG" style="rounded=0;whiteSpace=wrap;html=1;fontSize=12;fillColor=#f8cecc;strokeColor=#b85450;" parent="1" vertex="1">
          <mxGeometry x="510" y="800" width="160" height="240" as="geometry"/>
        </mxCell>
        <mxCell id="65k3x3zuta5IXdkDI2n7-27" value="FRBs&lt;br style=&quot;font-size: 24px;&quot;&gt;&lt;div style=&quot;font-size: 24px;&quot;&gt;regional banks of the Federal Reserve System&lt;/div&gt;" style="text;html=1;resizable=0;points=[];autosize=1;align=center;verticalAlign=top;spacingTop=-4;fontSize=24;" parent="1" vertex="1">
          <mxGeometry x="285" y="650" width="270" height="30" as="geometry"/>
        </mxCell>
      </root>
    </mxGraphModel>
  </diagram>
</mxfile>
